<svg width="49" height="49" viewBox="0 0 49 49" fill="none" xmlns="http://www.w3.org/2000/svg">
<path d="M44.3496 24.8401C44.3496 33.8001 38.4696 41.3801 30.3496 43.9201V38.8401C30.3496 37.1301 29.6296 35.6001 28.4896 34.5001C33.7296 33.5501 36.3496 30.5001 36.3496 24.8401C36.3496 22.3901 35.8496 20.4501 34.8696 18.9401C35.3096 17.2301 35.5696 14.8001 34.3496 12.8401C31.9896 12.8401 30.3396 14.2301 29.3696 15.3701C27.9196 15.0201 26.2496 14.8401 24.3496 14.8401C22.5496 14.8401 20.8896 15.0401 19.4096 15.4501C18.4496 14.3001 16.7696 12.8401 14.3496 12.8401C12.9296 15.1201 13.5096 17.5801 14.0496 18.9601C12.9696 20.4701 12.3496 22.4101 12.3496 24.8401C12.3496 30.5001 14.9696 33.5501 20.2096 34.5001C19.5396 35.1501 19.0196 35.9401 18.6996 36.8401H16.3496C14.9096 36.8401 14.3496 36.2001 13.5796 35.1601C12.8096 34.1201 11.9796 33.4201 10.9896 33.1301C10.4596 33.0701 10.0996 33.5001 10.5696 33.8801C12.1396 35.0101 12.2496 36.8601 12.8796 38.0701C13.4496 39.1601 14.6296 39.8401 15.9596 39.8401H18.3496V43.9201C10.2296 41.3801 4.34961 33.8001 4.34961 24.8401C4.34961 13.7901 13.2996 4.84009 24.3496 4.84009C35.3996 4.84009 44.3496 13.7901 44.3496 24.8401Z" fill="white"/>
</svg>
